<svg fill="none" height="24" viewBox="0 0 43 24" width="43" xmlns="http://www.w3.org/2000/svg"><path d="m21.3306 14.7705-7.4797-4.0437-12.983739-7.01817c-.011852-.01212-.035555-.01212-.047406-.01212-.474076-.2303-.960003.25454-.7822248.7394l6.6157198 17.25699.00119.0037c.00711.0169.01303.0339.02015.0509.2714.6436.864 1.0412 1.50874 1.1976.05452.0121.09352.0231.15898.0364.06515.0148.15628.0351.2345.0411.01304.0012.02489.0012.03793.0025h.00948c.00948.0012.01896.0012.02845.0024h.01303c.0083.0012.01778.0012.02608.0012h.0154c.00949.0012.01897.0012.02845.0012 8.37747.9341 16.83267.9341 25.21017 0 .1007 0 .1991-.0048.2939-.0145.0308-.0037.0604-.0073.0901-.011.0035-.0012.0083-.0012.0118-.0024.0202-.0024.0403-.006.0605-.0097.0296-.0036.0592-.0097.0889-.0157.0592-.0134.0862-.0231.1666-.0513.0804-.0283.2139-.0777.2975-.1189.0835-.0413.1415-.0807.2114-.1256.0865-.0557.1688-.1128.2522-.1768.036-.0282.0607-.0462.0868-.0717l-.0142-.0085z" fill="#ff2b2b"/><path d="m41.8158 3.70881h-.0118l-12.9886 7.01819 7.2202 10.9976 6.5992-17.28852v-.02424c.1659-.50909-.3437-.9697-.819-.70303z" fill="#7d353b"/><path d="m22.0227.371706c-.3318-.495759-1.0548-.495759-1.3748 0l-6.7971 10.355194 7.4798 4.0437 14.1748 7.6617c.089-.0892.1604-.176.2359-.2678.1067-.1345.2062-.2788.2939-.44l-7.2202-10.9976z" fill="#bd4043"/></svg>